<svg xmlns="http://www.w3.org/2000/svg" width="45" height="45" viewBox="0 0 45 45"><g transform="translate(-0.226)"><rect width="45" height="45" transform="translate(0.226)" fill="#fff"/><g transform="translate(6.069 4.14)"><g transform="translate(0 0)"><path d="M32.987,24.506l-4.66-4.66a3.1,3.1,0,0,0-5.159,1.165,3.171,3.171,0,0,1-3.661,2c-3.328-.832-7.822-5.159-8.654-8.654a3.016,3.016,0,0,1,2-3.661,3.1,3.1,0,0,0,1.165-5.159L9.354.874a3.324,3.324,0,0,0-4.493,0L1.7,4.036c-3.162,3.328.333,12.149,8.155,19.971S26.5,35.49,29.825,32.161L32.987,29A3.324,3.324,0,0,0,32.987,24.506Z" transform="translate(-0.539 0)" fill="#1f39a8"/></g></g></g></svg>