<svg width="24" height="24" viewBox="0 0 24 24" fill="none" xmlns="http://www.w3.org/2000/svg">
<path d="M12 0C5.37225 0 0 5.3725 0 12C0 18.6275 5.37225 24 12 24C18.6273 24 24 18.6275 24 12C24 5.3725 18.6273 0 12 0Z" fill="#1B1D2D"/>
<path d="M13.7334 7.32402H15V5.09802C14.3867 5.03176 13.7706 4.99905 13.154 5.00002C11.3215 5.00002 10.0683 6.16202 10.0683 8.29002V10.124H8V12.616H10.0683V19H12.5476V12.616H14.6092L14.9192 10.124H12.5476V8.53502C12.5476 7.80002 12.7363 7.32402 13.7334 7.32402Z" fill="white"/>
</svg>
