<svg width="24" height="24" viewBox="0 0 24 24" fill="none" xmlns="http://www.w3.org/2000/svg">
<path d="M14.1339 12C14.1339 10.8217 13.1787 9.86667 12.0006 9.86667C10.8223 9.86667 9.86721 10.8217 9.86721 12C9.86721 13.1782 10.8223 14.1334 12.0006 14.1334C13.1787 14.1334 14.1339 13.1782 14.1339 12Z" fill="#1B1D2D"/>
<path fill-rule="evenodd" clip-rule="evenodd" d="M11.7872 6.75324C11.6578 6.75318 11.5379 6.75313 11.4264 6.7533V6.7517C10.2336 6.75304 10.0048 6.76104 9.41439 6.7877C8.79038 6.81637 8.45158 6.92037 8.22598 7.00837C7.92731 7.12464 7.71397 7.26331 7.48997 7.48731C7.26597 7.71131 7.12703 7.92465 7.01103 8.22332C6.92343 8.44892 6.81916 8.78759 6.79063 9.4116C6.75996 10.0863 6.75383 10.2879 6.75383 11.997C6.75383 13.706 6.75996 13.9087 6.79063 14.5834C6.81903 15.2074 6.92343 15.5461 7.01103 15.7714C7.1273 16.0702 7.26597 16.283 7.48997 16.507C7.71397 16.731 7.92731 16.8697 8.22598 16.9857C8.45171 17.0733 8.79038 17.1775 9.41439 17.2063C10.0891 17.237 10.2916 17.2437 12.0005 17.2437C13.7094 17.2437 13.912 17.237 14.5867 17.2063C15.2107 17.1778 15.5497 17.0738 15.775 16.9858C16.0738 16.8698 16.2865 16.7311 16.5105 16.5071C16.7345 16.2833 16.8734 16.0706 16.9894 15.7719C17.077 15.5466 17.1813 15.2079 17.2098 14.5839C17.2405 13.9092 17.2471 13.7066 17.2471 11.9986C17.2471 10.2905 17.2405 10.0879 17.2098 9.4132C17.1814 8.78919 17.077 8.45052 16.9894 8.22519C16.8731 7.92652 16.7345 7.71318 16.5105 7.48918C16.2866 7.26517 16.0737 7.12651 15.775 7.01051C15.5494 6.9229 15.2107 6.81864 14.5867 6.7901C13.9119 6.75944 13.7094 6.7533 12.0005 6.7533C11.9267 6.7533 11.8556 6.75327 11.7872 6.75324ZM14.6488 8.58372C14.6488 8.15959 14.9928 7.81598 15.4169 7.81598C15.8409 7.81598 16.1849 8.15972 16.1849 8.58372C16.1849 9.00773 15.8409 9.35173 15.4169 9.35173C14.9928 9.35173 14.6488 9.00773 14.6488 8.58372ZM8.71389 12C8.71389 10.1849 10.1855 8.71332 12.0006 8.71332C13.8157 8.71332 15.2868 10.1849 15.2868 12C15.2868 13.8151 13.8157 15.2861 12.0006 15.2861C10.1855 15.2861 8.71389 13.8151 8.71389 12Z" fill="#1B1D2D"/>
<path fill-rule="evenodd" clip-rule="evenodd" d="M12 0C5.37258 0 0 5.37258 0 12C0 18.6274 5.37258 24 12 24C18.6274 24 24 18.6274 24 12C24 5.37258 18.6274 0 12 0ZM9.36162 5.63864C10.0443 5.60758 10.2624 5.59998 12.0006 5.59998H11.9986C13.7373 5.59998 13.9546 5.60758 14.6373 5.63864C15.3186 5.66984 15.7839 5.77771 16.192 5.93598C16.6133 6.09931 16.9693 6.31798 17.3253 6.67399C17.6813 7.02972 17.9 7.38679 18.064 7.80773C18.2213 8.21467 18.3293 8.67974 18.3613 9.36108C18.392 10.0438 18.4 10.2619 18.4 12C18.4 13.7382 18.392 13.9558 18.3613 14.6385C18.3293 15.3195 18.2213 15.7847 18.064 16.1918C17.9 16.6126 17.6813 16.9697 17.3253 17.3254C16.9697 17.6814 16.6132 17.9006 16.1924 18.0641C15.7851 18.2224 15.3195 18.3302 14.6382 18.3614C13.9555 18.3925 13.7381 18.4001 11.9998 18.4001C10.2618 18.4001 10.0438 18.3925 9.36108 18.3614C8.67987 18.3302 8.21467 18.2224 7.80747 18.0641C7.38679 17.9006 7.02972 17.6814 6.67412 17.3254C6.31825 16.9697 6.09958 16.6126 5.93598 16.1917C5.77784 15.7847 5.66998 15.3197 5.63864 14.6383C5.60771 13.9557 5.59998 13.7382 5.59998 12C5.59998 10.2619 5.60798 10.0436 5.63851 9.36095C5.66918 8.67987 5.77718 8.21467 5.93585 7.8076C6.09985 7.38679 6.31852 7.02972 6.67452 6.67399C7.03026 6.31812 7.38733 6.09945 7.80827 5.93598C8.2152 5.77771 8.68027 5.66984 9.36162 5.63864Z" fill="#1B1D2D"/>
</svg>
