<svg xmlns="http://www.w3.org/2000/svg" width="45" height="45" viewBox="0 0 45 45"><g transform="translate(-0.366)"><rect width="45" height="45" transform="translate(0.366)" fill="#fff"/><g transform="translate(5.914 10.054)"><g transform="translate(0 0)"><path d="M30.359,61H2.925A2.93,2.93,0,0,0,0,63.925v19.5a2.93,2.93,0,0,0,2.925,2.925H30.359a2.93,2.93,0,0,0,2.925-2.925v-19.5A2.93,2.93,0,0,0,30.359,61Zm-.4,1.95L16.7,76.2,3.339,62.95ZM1.95,83.024V64.32l9.392,9.312ZM3.329,84.4l9.4-9.4,3.293,3.265a.975.975,0,0,0,1.376,0l3.211-3.211L29.955,84.4Zm28.005-1.379-9.347-9.347,9.347-9.348Z" transform="translate(0 -61)" fill="#1f39a8"/></g></g></g></svg>